<mxfile host="Electron" modified="2023-08-02T12:05:30.425Z" agent="Mozilla/5.0 (Macintosh; Intel Mac OS X 10_15_7) AppleWebKit/537.36 (KHTML, like Gecko) draw.io/21.6.5 Chrome/114.0.5735.243 Electron/25.3.1 Safari/537.36" etag="WaekFF_p025HDmypyHaw" version="21.6.5" type="device">
  <diagram name="FPX-Single-VM" id="EMH9KgeWkx0thbAno_uH">
    <mxGraphModel dx="1314" dy="924" grid="1" gridSize="10" guides="1" tooltips="1" connect="1" arrows="1" fold="1" page="1" pageScale="1" pageWidth="1169" pageHeight="827" math="0" shadow="0">
      <root>
        <mxCell id="qR9BJTGGLoXFY06QcplL-0" />
        <mxCell id="qR9BJTGGLoXFY06QcplL-1" parent="qR9BJTGGLoXFY06QcplL-0" />
        <mxCell id="qR9BJTGGLoXFY06QcplL-4" style="vsdxID=7;fillColor=#ffffff;gradientColor=none;fillOpacity=0;strokeOpacity=0;shape=stencil(pZPRDoIgFIafhlt35Cy1y2b2Hi4xWSYOteztg7EMNXVMrg7w/4fv3zgE46ZIa0YoNK0Ud/biWVsQPBNKeVUwyVtVEUwIxrmQ7CZFV2VmX6daqauHeOoOvfGBdlB427uLEZa8soToReGy9tpJ09Uf1MHRXl+vP3q2pxtyOpbjjAVnMHDaZj94QbQHX/lD+xrd4izZF+ONef8kBKd44JQGnOBhF/nqp5pgwyomrGJN/4uqfxOS87I0AzagqGI6UerITCMmHw==);spacingTop=-3;spacingBottom=-3;spacingLeft=-3;spacingRight=-3;labelBackgroundColor=none;rounded=0;html=1;whiteSpace=wrap;" parent="qR9BJTGGLoXFY06QcplL-1" vertex="1">
          <mxGeometry x="193" y="101" width="918" height="626" as="geometry" />
        </mxCell>
        <mxCell id="3usOkMj8N7TbXHjgFwUk-4" value="" style="rounded=1;whiteSpace=wrap;html=1;sketch=0;fontSize=10;strokeColor=#007fff;fillColor=#FFFFFF;gradientColor=none;gradientDirection=south;absoluteArcSize=1;arcSize=4;fontFamily=Helvetica;" parent="qR9BJTGGLoXFY06QcplL-1" vertex="1">
          <mxGeometry x="201" y="80" width="859.9999999999999" height="600" as="geometry" />
        </mxCell>
        <mxCell id="3usOkMj8N7TbXHjgFwUk-13" value="&lt;span style=&quot;font-size: 13px;&quot;&gt;Virtual Network&amp;nbsp;&lt;/span&gt;&lt;br style=&quot;font-size: 13px;&quot;&gt;&lt;span style=&quot;font-size: 13px;&quot;&gt;172.16.136.0/22&amp;nbsp;&lt;/span&gt;" style="text;html=1;strokeColor=none;fillColor=none;align=right;verticalAlign=middle;whiteSpace=wrap;rounded=0;sketch=0;fontSize=4;labelPosition=center;verticalLabelPosition=middle;horizontal=1;fontFamily=Helvetica;" parent="qR9BJTGGLoXFY06QcplL-1" vertex="1">
          <mxGeometry x="222.5" y="630" width="766.83" height="50" as="geometry" />
        </mxCell>
        <mxCell id="3usOkMj8N7TbXHjgFwUk-14" value="" style="aspect=fixed;html=1;points=[];align=center;image;fontSize=12;image=img/lib/azure2/networking/Virtual_Networks.svg;rounded=1;sketch=0;strokeColor=#007fff;fillColor=#FFFFFF;gradientColor=none;gradientDirection=south;fontFamily=Helvetica;" parent="qR9BJTGGLoXFY06QcplL-1" vertex="1">
          <mxGeometry x="989.3333333333333" y="640" width="57.548333333333325" height="34.32833333333333" as="geometry" />
        </mxCell>
        <mxCell id="3usOkMj8N7TbXHjgFwUk-26" value="" style="vsdxID=12;fillColor=#f0f0f0;gradientColor=none;shape=stencil(hZNRcoMgEIZPwysDrJjw2EmTC/QETqSVqdUMMa3p6UtcNIAk9Qn+/Ve+XVgCu3NTnTQR7DzY/lP/mHpoCLwSIUzXaGsGtyKwJ7B7763+sP2lq3F/qpxTsEnRNebwm1uwyh7fzK9GjVHgG4kBzPzqv28njj6OoevsVsUkHNB7vFg089g9b2nBVPCVJcZHMcfLjc8Q0Q9G8MRUFt4AoWE6nr04gtZ0Aa3a0kLGxM9wlaIgEuSY0DmUShAfFQXrFMi1Lccd5CwKk/+wLyl3SW5X/EuFXuIsaXLYNIg9j3iDe8kkZN7F/aJ5ShHf/FWsa4HYAdkOZSifv123mIYEx8e0Lc5YGE+Hykk4kLD/Aw==);strokeColor=#bfbfbf;spacingTop=-3;spacingBottom=-3;spacingLeft=-3;spacingRight=-3;labelBackgroundColor=none;rounded=1;html=1;whiteSpace=wrap;" parent="qR9BJTGGLoXFY06QcplL-1" vertex="1">
          <mxGeometry x="260" y="119" width="730" height="490" as="geometry" />
        </mxCell>
        <mxCell id="3usOkMj8N7TbXHjgFwUk-31" value=".4" style="text;html=1;strokeColor=none;fillColor=none;align=center;verticalAlign=middle;whiteSpace=wrap;rounded=0;fontSize=13;movable=1;resizable=1;rotatable=1;deletable=1;editable=1;connectable=1;direction=east;container=0;" parent="qR9BJTGGLoXFY06QcplL-1" vertex="1">
          <mxGeometry x="562.26" y="333.5" width="24" height="30" as="geometry" />
        </mxCell>
        <mxCell id="6b_MJkNo4GDeTMmPDyDw-6" style="edgeStyle=orthogonalEdgeStyle;rounded=0;orthogonalLoop=1;jettySize=auto;html=1;" parent="qR9BJTGGLoXFY06QcplL-1" source="3usOkMj8N7TbXHjgFwUk-54" target="3usOkMj8N7TbXHjgFwUk-30" edge="1">
          <mxGeometry relative="1" as="geometry" />
        </mxCell>
        <mxCell id="3usOkMj8N7TbXHjgFwUk-54" value="&lt;font color=&quot;#000000&quot;&gt;&lt;font style=&quot;font-size: 14px;&quot;&gt;Public IP&lt;/font&gt;&lt;br&gt;FortiProxy&lt;br&gt;(optional)&lt;br&gt;&lt;/font&gt;" style="aspect=fixed;html=1;points=[];align=center;image;fontSize=12;image=img/lib/azure2/networking/Public_IP_Addresses.svg;rounded=1;sketch=0;strokeColor=#007fff;fillColor=#FFFFFF;gradientColor=none;gradientDirection=south;fontFamily=Helvetica;fontColor=#999999;" parent="qR9BJTGGLoXFY06QcplL-1" vertex="1">
          <mxGeometry x="109" y="363.50000000000006" width="65" height="52" as="geometry" />
        </mxCell>
        <mxCell id="3usOkMj8N7TbXHjgFwUk-29" value="&lt;span style=&quot;&quot;&gt;&amp;nbsp;172.16.136.0/24&lt;/span&gt;" style="text;html=1;strokeColor=none;fillColor=none;align=left;verticalAlign=middle;whiteSpace=wrap;rounded=0;fontFamily=Helvetica;fontSize=10;" parent="qR9BJTGGLoXFY06QcplL-1" vertex="1">
          <mxGeometry x="900" y="579.9989552238806" width="90" height="27.791044776119403" as="geometry" />
        </mxCell>
        <mxCell id="3usOkMj8N7TbXHjgFwUk-28" value="&lt;p style=&quot;align:center;margin-left:0;margin-right:0;margin-top:0px;margin-bottom:0px;text-indent:0;valign:middle;direction:ltr;&quot;&gt;&lt;font style=&quot;font-size:9px;font-family:Arial;color:#000000;direction:ltr;letter-spacing:0px;line-height:100%;opacity:1&quot;&gt;Protected Subnet&lt;/font&gt;&lt;/p&gt;" style="text;vsdxID=11;fillColor=none;gradientColor=none;strokeColor=none;spacingTop=-3;spacingBottom=-3;spacingLeft=-3;spacingRight=-3;labelBackgroundColor=none;rounded=1;html=1;whiteSpace=wrap;verticalAlign=middle;align=center;;html=1;" parent="qR9BJTGGLoXFY06QcplL-1" vertex="1">
          <mxGeometry x="515.61" y="136.8886567164179" width="180.98" height="18.57611940298507" as="geometry" />
        </mxCell>
        <mxCell id="3usOkMj8N7TbXHjgFwUk-30" value="" style="aspect=fixed;html=1;points=[];align=center;image;fontSize=12;image=img/lib/azure2/networking/Network_Interfaces.svg;strokeWidth=2;rotation=-180;movable=1;resizable=1;rotatable=1;deletable=1;editable=1;connectable=1;direction=east;container=0;" parent="qR9BJTGGLoXFY06QcplL-1" vertex="1">
          <mxGeometry x="556.6899999999999" y="374" width="35.13" height="31" as="geometry" />
        </mxCell>
        <mxCell id="xJP0kdYVps5BfJKVslav-0" value="FortiProxy" style="shape=image;verticalLabelPosition=bottom;verticalAlign=top;imageAspect=0;aspect=fixed;image=data:image/svg+xml,PHN2ZyB4bWxuczp4bGluaz0iaHR0cDovL3d3dy53My5vcmcvMTk5OS94bGluayIgeG1sbnM9Imh0dHA6Ly93d3cudzMub3JnLzIwMDAvc3ZnIiBvdmVyZmxvdz0iaGlkZGVuIiB4bWw6c3BhY2U9InByZXNlcnZlIiBoZWlnaHQ9IjQ4IiB3aWR0aD0iNDgiIHZpZXdCb3g9IjAgMCA0OCA0OCI+PGcgdHJhbnNmb3JtPSJ0cmFuc2xhdGUoLTIwNCAtMjc2KSI+PGc+PHBhdGggZmlsbC1vcGFjaXR5PSIxIiBmaWxsLXJ1bGU9Im5vbnplcm8iIGZpbGw9IiMwMDAwMDAiIGQ9Ik0yNDcuMTMgMjk0LjE2IDI0Ni4xNzMgMjk0LjQ1MyAyNDcuMTMgMjk0LjE2QzI0Ni4yMDggMjkxLjEzMyAyNDQuNTQyIDI4OC4zMjggMjQyLjMyIDI4Ni4wNDUgMjM4LjUyIDI4Mi4xNDcgMjMzLjQzNSAyODAgMjI4IDI4MCAyMjQuMDUzIDI4MCAyMjAuMjMgMjgxLjE1MiAyMTYuOTQ3IDI4My4zMzIgMjExLjM0NSAyODcuMDU1IDIwOCAyOTMuMjg1IDIwOCAzMDAgMjA4IDMwMC4yNjMgMjA4LjAxIDMwMC41MjIgMjA4LjAyIDMwMC43OCAyMDguMzg1IDMxMC4yNjMgMjE1LjQ0MyAzMTguMjM1IDIyNC44MDMgMzE5Ljc0MiAyMjUuODY1IDMxOS45MTMgMjI2Ljk0MyAzMjAgMjI4IDMyMCAyMjkuNzg4IDMyMCAyMzEuNTcyIDMxOS43NiAyMzMuMzA1IDMxOS4yODMgMjQxLjk1OCAzMTYuOTA4IDI0OCAzMDguOTc4IDI0OCAzMDAgMjQ4IDI5OC4wMTUgMjQ3LjcwOCAyOTYuMDUgMjQ3LjEzIDI5NC4xNlpNMjQ0LjIzOCAyOTIuMjM1QzI0Mi44NCAyOTEuNTQzIDI0MS4zOTMgMjkwLjk2MiAyMzkuOTAyIDI5MC41MDMgMjM5LjkwMiAyODkuOTIgMjM5Ljc4MyAyODkuMzY1IDIzOS41NzUgMjg4Ljg1NSAyNDAuMTYgMjg4LjUzMyAyNDAuNzU1IDI4OC4yMyAyNDEuMzYgMjg3Ljk1IDI0Mi41MiAyODkuMjM1IDI0My40OSAyOTAuNjgyIDI0NC4yMzUgMjkyLjIzNVpNMjM5Ljg0NSAyODYuNDZDMjM5LjM1NyAyODYuNyAyMzguODggMjg2Ljk1MyAyMzguNDA4IDI4Ny4yMiAyMzcuNjMzIDI4Ni41NCAyMzYuNjIyIDI4Ni4xMjIgMjM1LjUxMiAyODYuMTIyIDIzMy41NTUgMjg2LjEyMiAyMzEuODk1IDI4Ny40MSAyMzEuMzI3IDI4OS4xOCAyMzEuMjcyIDI4OS4xOCAyMzEuMjE3IDI4OS4xNzcgMjMxLjE2NSAyODkuMTc3IDIyNy45NTggMjg5LjE3NyAyMjQuODEyIDI4OS42OTUgMjIxLjgwMyAyOTAuNzAzIDIyMS4yNCAyODkuOTEgMjIwLjQyIDI4OS4zMSAyMTkuNDY3IDI4OS4wMjcgMjE5LjY0IDI4Ny4yNTMgMjE5Ljk4NSAyODUuNDg3IDIyMC40OTcgMjgzLjc3NUwyMjAuMzIgMjgzLjcyM0MyMjIuNzEgMjgyLjU5MiAyMjUuMzIyIDI4Mi4wMDMgMjI4LjAwMyAyODIuMDAzIDIzMi40MTMgMjgyLjAwMyAyMzYuNTY1IDI4My41NzggMjM5Ljg0OCAyODYuNDZaTTIyNC4zMTIgMzEyLjU3QzIyMi45OTIgMzEyLjU3IDIyMS45MiAzMTEuNDk3IDIyMS45MiAzMTAuMTc3IDIyMS45MiAzMDguODU3IDIyMi45OTIgMzA3Ljc4NSAyMjQuMzEyIDMwNy43ODUgMjI1LjYzMyAzMDcuNzg1IDIyNi43MDUgMzA4Ljg1NyAyMjYuNzA1IDMxMC4xNzcgMjI2LjcwNSAzMTEuNDk3IDIyNS42MzMgMzEyLjU3IDIyNC4zMTIgMzEyLjU3Wk0yMjQuMjQ3IDMwNS43ODhDMjIzLjkyMyAzMDUuNzkzIDIyMy42MDcgMzA1LjgzNSAyMjMuMzA1IDMwNS45MDUgMjIxLjY4NSAzMDMuMjMzIDIyMC41NDggMzAwLjM0IDIxOS45MTcgMjk3LjI5IDIyMS41IDI5Ni42MjUgMjIyLjYxNSAyOTUuMDYgMjIyLjYxNSAyOTMuMjM3IDIyMi42MTUgMjkzLjAwNSAyMjIuNTkyIDI5Mi43OCAyMjIuNTU3IDI5Mi41NTcgMjI1LjMyNyAyOTEuNjQ1IDIyOC4yMTcgMjkxLjE3NyAyMzEuMTY1IDI5MS4xNzdMMjMxLjE3NSAyOTEuMTc3QzIzMS4yNDcgMjkxLjY0NSAyMzEuMzkgMjkyLjA5IDIzMS41OTggMjkyLjQ5NyAyMjguMDEgMjk2LjIyNSAyMjUuNDkgMzAwLjc4OCAyMjQuMjQ3IDMwNS43ODhaTTIxNS44MyAyOTMuMjM3QzIxNS44MyAyOTEuOTE4IDIxNi45MDIgMjkwLjg0NSAyMTguMjIzIDI5MC44NDUgMjE5LjU0MiAyOTAuODQ1IDIyMC42MTUgMjkxLjkxOCAyMjAuNjE1IDI5My4yMzcgMjIwLjYxNSAyOTQuNTU3IDIxOS41NDIgMjk1LjYzIDIxOC4yMjMgMjk1LjYzIDIxNi45MDIgMjk1LjYzIDIxNS44MyAyOTQuNTU3IDIxNS44MyAyOTMuMjM3Wk0yMzMuMTIgMjkwLjUxNUMyMzMuMTIgMjg5LjE5NSAyMzQuMTkzIDI4OC4xMjIgMjM1LjUxMiAyODguMTIyIDIzNi44MzMgMjg4LjEyMiAyMzcuOTA1IDI4OS4xOTUgMjM3LjkwNSAyOTAuNTE1IDIzNy45MDUgMjkxLjgzNSAyMzYuODMzIDI5Mi45MDggMjM1LjUxMiAyOTIuOTA4IDIzNC4xOTMgMjkyLjkwOCAyMzMuMTIgMjkxLjgzNSAyMzMuMTIgMjkwLjUxNVpNMjE4LjA1NyAyODUgMjE3LjUwNSAyODQuMTY4IDIxOC4wNTcgMjg1QzIxOC4wNzcgMjg0Ljk4NyAyMTguMDk1IDI4NC45NzUgMjE4LjExNSAyODQuOTYyIDIxNy44MSAyODYuMjY1IDIxNy41OTUgMjg3LjU4NSAyMTcuNDcgMjg4LjkxMyAyMTUuNDA1IDI4OS4yNzIgMjEzLjgzIDI5MS4wNyAyMTMuODMgMjkzLjIzNSAyMTMuODMgMjkzLjcyOCAyMTMuOTE1IDI5NC4xOTggMjE0LjA2NSAyOTQuNjQgMjEyLjY1IDI5NS42NSAyMTEuMzMgMjk2Ljc4IDIxMC4xMTMgMjk4LjAyMiAyMTAuNjkzIDI5Mi43NDcgMjEzLjU2OCAyODcuOTc4IDIxOC4wNTcgMjg0Ljk5NVpNMjEwLjA0IDMwMS4wOEMyMTEuNTMzIDI5OS4yODggMjEzLjIzNSAyOTcuNjk4IDIxNS4xMTcgMjk2LjM0MiAyMTUuODUgMjk3LjA3NSAyMTYuODQyIDI5Ny41NDUgMjE3Ljk0IDI5Ny42MTUgMjE4LjYwMiAzMDAuODYyIDIxOS43OTggMzAzLjk0NSAyMjEuNTA1IDMwNi43OTcgMjIwLjUzNSAzMDcuNjA1IDIxOS45MTcgMzA4LjgxOCAyMTkuOTE3IDMxMC4xNzUgMjE5LjkxNyAzMTIuMjg1IDIyMS40MTUgMzE0LjA1MiAyMjMuNDAyIDMxNC40NzMgMjIzLjQ1NSAzMTUuNDggMjIzLjU1NyAzMTYuNDg1IDIyMy43MTIgMzE3LjQ4MiAyMTYuMTIgMzE1LjYyOCAyMTAuNTA4IDMwOC45NyAyMTAuMDQgMzAxLjA4MlpNMjI1LjgwNSAzMTcuODU3QzIyNS42IDMxNi43MjUgMjI1LjQ2NSAzMTUuNTc1IDIyNS40MDIgMzE0LjQyMiAyMjYuMDI3IDMxNC4yNjMgMjI2LjYgMzEzLjk3MyAyMjcuMDg1IDMxMy41NzUgMjI4LjczIDMxNS4wNjIgMjMwLjUyNSAzMTYuMzUzIDIzMi40NTggMzE3LjQzIDIzMC4yOSAzMTcuOTgyIDIyOC4wNDUgMzE4LjEzIDIyNS44MDUgMzE3Ljg1N1pNMjM1LjA5MiAzMTYuNTM4QzIzMi42MDcgMzE1LjM2MiAyMzAuMzMzIDMxMy44MzcgMjI4LjMwNyAzMTEuOTg1IDIyOC41NiAzMTEuNDMyIDIyOC43MDUgMzEwLjgxOCAyMjguNzA1IDMxMC4xNzIgMjI4LjcwNSAzMDguNDI3IDIyNy42NzggMzA2LjkyIDIyNi4yIDMwNi4yMTIgMjI3LjM0NSAzMDEuNjQyIDIyOS42NDMgMjk3LjQ2NyAyMzIuODk1IDI5NC4wMzMgMjMzLjYyOCAyOTQuNTc4IDIzNC41MyAyOTQuOTA1IDIzNS41MSAyOTQuOTA1IDIzNy4yMzUgMjk0LjkwNSAyMzguNzI4IDI5My45MDIgMjM5LjQ0NSAyOTIuNDUgMjQxLjQ5NyAyOTMuMDk4IDI0My40NjcgMjkzLjk5IDI0NS4zMTggMjk1LjEwNSAyNDUuNzY1IDI5Ni42OTUgMjQ1Ljk5NSAyOTguMzQgMjQ1Ljk5NSAzMDAgMjQ1Ljk5NSAzMDcuMjUgMjQxLjYxNSAzMTMuNzQgMjM1LjA5IDMxNi41NFoiLz48cGF0aCBmaWxsLW9wYWNpdHk9IjEiIGZpbGwtcnVsZT0ibm9uemVybyIgZmlsbD0iI0RBMjkxQyIgZD0iTTI0MS4yNzcgMjk5LjUwNUMyMzkuNjgyIDI5OS4zNzggMjM4LjExNyAyOTguODgzIDIzNi43NDcgMjk4LjA3TDIzNi41ODMgMjk3Ljk3MyAyMzYuNDE3IDI5OC4wN0MyMzUuMDI3IDI5OC44OTIgMjMzLjUwNSAyOTkuMzc1IDIzMS44ODcgMjk5LjUwNUwyMzEuNTkyIDI5OS41MjcgMjMxLjU5MiAzMDUuNTY1QzIzMS41OTIgMzA2LjY1MiAyMzEuOTk3IDMwNy43NiAyMzIuNjc4IDMwOC41MzMgMjMzLjQ3OCAzMDkuNDQgMjM0LjQ0MyAzMDkuOTg3IDIzNi40NDMgMzEwLjk1TDIzNi41ODMgMzExLjAxOCAyMzYuNzIzIDMxMC45NUMyMzguNzIzIDMwOS45ODcgMjM5LjY4OCAzMDkuNDQgMjQwLjQ4OCAzMDguNTMzIDI0MS4xNjcgMzA3Ljc2MyAyNDEuNTcyIDMwNi42NSAyNDEuNTcyIDMwNS41NjVMMjQxLjU3MiAyOTkuNTI3IDI0MS4yNzcgMjk5LjUwNVpNMjM3Ljg1MyAzMDIuMTIgMjM4LjYwNyAzMDIuMTJDMjM5LjA5NSAzMDIuMTIgMjM5LjQ5IDMwMi41MTUgMjM5LjQ5IDMwMy4wMDNMMjM5LjQ5IDMwMy4xNzIgMjM3Ljg1MyAzMDMuMTcyIDIzNy44NTMgMzAyLjEyWk0yMzUuMzE1IDMwNi4xNzcgMjM0LjU2IDMwNi4xNzdDMjM0LjA3MiAzMDYuMTc3IDIzMy42NzggMzA1Ljc4MyAyMzMuNjc4IDMwNS4yOTVMMjMzLjY3OCAzMDUuMTI1IDIzNS4zMTUgMzA1LjEyNSAyMzUuMzE1IDMwNi4xNzdaTTIzNS4zMTUgMzA0LjY3NSAyMzMuNjc4IDMwNC42NzUgMjMzLjY3OCAzMDMuNjIyIDIzNS4zMTUgMzAzLjYyMiAyMzUuMzE1IDMwNC42NzVaTTIzNS4zMTUgMzAzLjE3MiAyMzMuNjc4IDMwMy4xNzIgMjMzLjY3OCAzMDMuMDAzQzIzMy42NzggMzAyLjUxNSAyMzQuMDcyIDMwMi4xMiAyMzQuNTYgMzAyLjEyTDIzNS4zMTUgMzAyLjEyIDIzNS4zMTUgMzAzLjE3MlpNMjM3LjQwMiAzMDYuMTc3IDIzNS43NjUgMzA2LjE3NyAyMzUuNzY1IDMwNS4xMjUgMjM3LjQwMiAzMDUuMTI1IDIzNy40MDIgMzA2LjE3N1pNMjM3LjQwMiAzMDIuMTIgMjM3LjQwMiAzMDMuMTcyIDIzNS43NjUgMzAzLjE3MiAyMzUuNzY1IDMwMi4xMiAyMzcuNDAyIDMwMi4xMlpNMjM5LjQ5IDMwNS4yOTVDMjM5LjQ5IDMwNS43ODMgMjM5LjA5NSAzMDYuMTc3IDIzOC42MDcgMzA2LjE3N0wyMzcuODUzIDMwNi4xNzcgMjM3Ljg1MyAzMDUuMTI1IDIzOS40OSAzMDUuMTI1IDIzOS40OSAzMDUuMjk1Wk0yMzkuNDkgMzA0LjY3NSAyMzcuODUzIDMwNC42NzUgMjM3Ljg1MyAzMDMuNjIyIDIzOS40OSAzMDMuNjIyIDIzOS40OSAzMDQuNjc1WiIvPjwvZz48L2c+PC9zdmc+" parent="qR9BJTGGLoXFY06QcplL-1" vertex="1">
          <mxGeometry x="584" y="350" width="77" height="77" as="geometry" />
        </mxCell>
      </root>
    </mxGraphModel>
  </diagram>
</mxfile>
